<?xml version="1.0" ?><!DOCTYPE svg  PUBLIC '-//W3C//DTD SVG 1.1//EN'  'http://www.w3.org/Graphics/SVG/1.1/DTD/svg11.dtd'><svg enable-background="new 0 0 24 24" height="24px" id="Layer_1" version="1.1" viewBox="0 0 24 24" width="24px" xml:space="preserve" xmlns="http://www.w3.org/2000/svg" xmlns:xlink="http://www.w3.org/1999/xlink"><path d="M23,18h-1v-6c0-0.6-0.4-1-1-1h-6v-1c0-0.6-0.4-1-1-1h-1V6h1c0.6,0,1-0.4,1-1V1c0-0.6-0.4-1-1-1h-4C9.4,0,9,0.4,9,1v4  c0,0.6,0.4,1,1,1h1v3h-1c-0.6,0-1,0.4-1,1v1H3c-0.6,0-1,0.4-1,1v6H1c-0.6,0-1,0.4-1,1v4c0,0.6,0.4,1,1,1h4c0.6,0,1-0.4,1-1v-4  c0-0.6-0.4-1-1-1H4v-5h5v1c0,0.6,0.4,1,1,1h4c0.6,0,1-0.4,1-1v-1h5v5h-1c-0.6,0-1,0.4-1,1v4c0,0.6,0.4,1,1,1h4c0.6,0,1-0.4,1-1v-4  C24,18.4,23.6,18,23,18z M10,5V1h4v4H10z M5,19v4H1v-4H5z M14,14h-4v-4h4V14z M23,23h-4v-4h4V23z"/></svg>